<svg xmlns="http://www.w3.org/2000/svg" xmlns:xlink="http://www.w3.org/1999/xlink" width="374" height="130" viewBox="0 0 374 130">
  <defs>
    <polygon id="fundme-a" points="0 129.477 390.545 129.477 390.545 0 0 0"/>
  </defs>
  <g fill="none" fill-rule="evenodd">
    <g transform="translate(-17)">
      <mask id="fundme-b" fill="#fff">
        <use xlink:href="#fundme-a"/>
      </mask>
      <path fill="#3394D1" d="M353.1925,0.0004 L242.2815,0.0004 C221.6525,0.0004 204.9285,16.7244 204.9285,37.3534 L204.9285,73.3854 C204.9285,94.0164 221.6525,110.7394 242.2815,110.7394 L271.0145,110.7394 L297.3265,129.4774 L323.6385,110.7394 L353.1925,110.7394 C373.8215,110.7394 390.5455,94.0164 390.5455,73.3854 L390.5455,37.3534 C390.5455,16.7244 373.8215,0.0004 353.1925,0.0004" mask="url(#fundme-b)"/>
      <path fill="#FFF" d="M230.3772 83.3682L230.3772 51.7142C230.3772 44.2702 232.3312 38.3902 236.2392 34.0722 240.1472 29.7552 245.4132 27.5962 252.0382 27.5962 255.4242 27.5962 258.5512 28.3132 261.4172 29.7452 264.2832 31.1782 266.7582 33.2722 268.8432 36.0262 271.0012 33.2342 273.4942 31.1322 276.3242 29.7172 279.1522 28.3032 282.2592 27.5962 285.6462 27.5962 292.1982 27.5962 297.4342 29.7642 301.3622 34.1002 305.2882 38.4362 307.2532 44.3072 307.2532 51.7142L307.2532 83.3682 297.5382 83.3682 297.5382 49.8712C297.5382 46.0382 296.4402 42.9482 294.2452 40.6032 292.0472 38.2592 289.1812 37.0862 285.6462 37.0862 282.1112 37.0862 279.2452 38.2592 277.0492 40.6032 274.8532 42.9482 273.7552 46.0382 273.7552 49.8712L273.7552 83.3682 264.0412 83.3682 264.0412 49.8712C264.0412 46.0382 262.9252 42.9482 260.6922 40.6032 258.4582 38.2592 255.5732 37.0862 252.0382 37.0862 248.4642 37.0862 245.5902 38.2592 243.4122 40.6032 241.2362 42.9482 240.1472 46.0382 240.1472 49.8712L240.1472 83.3682 230.3772 83.3682zM365.0975 59.1388C363.7205 66.9548 360.5555 73.1338 355.6065 77.6738 350.6565 82.2148 344.6265 84.4848 337.5175 84.4848 335.0975 84.4848 332.7065 84.1588 330.3445 83.5078 327.9805 82.8568 325.7555 81.8978 323.6735 80.6328 319.2795 77.9528 315.8745 74.4548 313.4555 70.1368 311.0355 65.8198 309.8265 61.0748 309.8265 55.9008 309.8265 52.1038 310.5255 48.4948 311.9205 45.0698 313.3155 41.6458 315.3345 38.5578 317.9775 35.8028 320.6195 33.0858 323.6245 31.0198 326.9935 29.6058 330.3625 28.1918 333.9065 27.4838 337.6285 27.4838 343.1755 27.4838 348.1345 28.9458 352.5085 31.8668 356.8805 34.7888 360.4265 39.0408 363.1435 44.6238L327.2465 64.4978 323.1145 57.0728 349.7445 42.2228C348.1065 40.3998 346.2635 39.0218 344.2175 38.0908 342.1705 37.1618 339.9375 36.6958 337.5175 36.6958 332.6045 36.6958 328.4635 38.5288 325.0965 42.1948 321.7275 45.8608 320.0445 50.3928 320.0445 55.7888 320.0445 61.1488 321.7365 65.6708 325.1235 69.3548 328.5105 73.0398 332.6425 74.8828 337.5175 74.8828 342.1705 74.8828 346.0675 73.3468 349.2145 70.2758 352.3575 67.2058 354.3225 62.9908 355.1035 57.6308L365.0975 59.1388z" mask="url(#fundme-b)"/>
    </g>
    <path fill="#231F20" d="M10,84.0937931 L10,30.3758621 C10,24.2337624 11.72258,19.6356475 15.1677916,16.5813793 C18.6130032,13.5271112 23.8141912,12 30.7715118,12 L36.0898216,12 L36.0898216,20.457931 L30.9722027,20.457931 C26.7242234,20.457931 23.621907,21.3809103 21.6651606,23.2268966 C19.7084142,25.0728828 18.7300557,27.9760722 18.7300557,31.9365517 L18.7300557,34.7055172 L36.0898216,34.7055172 L36.0898216,43.0627586 L18.7300557,43.0627586 L18.7300557,84.0937931 L10,84.0937931 Z M83.1518458,34.7055172 L83.1518458,61.64 C83.1518458,68.8225646 81.2536631,74.5114733 77.4572406,78.7068966 C73.6608181,82.9023198 68.5683365,85 62.1796431,85 C55.8243984,85 50.757003,82.9023198 46.9773048,78.7068966 C43.1976066,74.5114733 41.3077859,68.8225646 41.3077859,61.64 L41.3077859,34.7055172 L50.0880143,34.7055172 L50.0880143,63.2510345 C50.0880143,67.1443873 51.2336136,70.3160797 53.5248466,72.7662069 C55.8160795,75.2163341 58.734431,76.4413793 62.2799886,76.4413793 C65.8589948,76.4413793 68.7773463,75.2163341 71.0351306,72.7662069 C73.292915,70.3160797 74.4217902,67.1443873 74.4217902,63.2510345 L74.4217902,34.7055172 L83.1518458,34.7055172 Z M88.9472762,84.0937931 L88.9472762,57.1593103 C88.9472762,49.9767457 90.853821,44.2878371 94.6669679,40.0924138 C98.4801147,35.8969905 103.564234,33.7993103 109.919479,33.7993103 C116.274724,33.7993103 121.342119,35.8969905 125.121817,40.0924138 C128.901515,44.2878371 130.791336,49.9767457 130.791336,57.1593103 L130.791336,84.0937931 L122.061281,84.0937931 L122.061281,55.5482759 C122.061281,51.6549231 120.932405,48.4832306 118.674621,46.0331034 C116.416837,43.5829763 113.498485,42.357931 109.919479,42.357931 C106.373921,42.357931 103.45557,43.5829763 101.164337,46.0331034 C98.8731039,48.4832306 97.7275046,51.6549231 97.7275046,55.5482759 L97.7275046,84.0937931 L88.9472762,84.0937931 Z M184,12 L184,55.4475862 C184,59.8779532 183.790949,63.2006786 183.372841,65.4158621 C182.954733,67.6310456 182.260683,69.6616 181.290672,71.5075862 C179.216856,75.7365729 176.223246,79.0425168 172.309753,81.4255172 C168.39626,83.8085177 164.064724,85 159.315015,85 C152.157003,85 146.245041,82.5750817 141.578954,77.7251724 C136.912866,72.8752631 134.579857,66.7416463 134.579857,59.3241379 C134.579857,56.0013627 135.148476,52.8296703 136.28573,49.8089655 C137.422984,46.7882608 139.078668,44.0864487 141.252831,41.7034483 C143.460442,39.2197577 146.102846,37.2982827 149.180123,35.9389655 C152.257399,34.5796484 155.468422,33.9 158.813288,33.9 C161.25504,33.9 163.588048,34.1768938 165.812384,34.7306897 C168.03672,35.2844855 170.152315,36.1319483 172.159235,37.2731034 L172.159235,46.7882759 C170.118867,45.2443601 168.086891,44.1032221 166.063248,43.3648276 C164.039604,42.6264331 161.957456,42.2572414 159.816742,42.2572414 C155.100482,42.2572414 151.220496,43.8850412 148.176668,47.1406897 C145.13284,50.3963381 143.610949,54.574917 143.610949,59.6765517 C143.610949,64.6774963 145.09103,68.7637772 148.051236,71.9355172 C151.011442,75.1072572 154.799446,76.6931034 159.41536,76.6931034 C164.064724,76.6931034 167.844365,75.0904758 170.754398,71.8851724 C173.664431,68.679869 175.119426,64.4928994 175.119426,59.3241379 L175.119426,12 L184,12 Z"/>
  </g>
</svg>
