<?xml version="1.0" standalone="no"?>
<!DOCTYPE svg PUBLIC "-//W3C//DTD SVG 20010904//EN"
 "http://www.w3.org/TR/2001/REC-SVG-20010904/DTD/svg10.dtd">
<svg version="1.0" xmlns="http://www.w3.org/2000/svg"
 width="365.000000pt" height="611.000000pt" viewBox="0 0 365.000000 611.000000"
 preserveAspectRatio="xMidYMid meet">
<metadata>
Created by potrace 1.15, written by Peter Selinger 2001-2017
</metadata>
<g transform="translate(0.000000,611.000000) scale(0.100000,-0.100000)"
fill="#000000" stroke="none">
<path d="M742 6094 c-48 -33 -52 -57 -52 -303 0 -126 4 -241 9 -254 15 -38 49
-65 92 -72 l39 -7 0 -134 c0 -108 -4 -144 -19 -184 -49 -128 -148 -194 -316
-210 -151 -14 -233 -49 -332 -143 -62 -59 -105 -122 -135 -203 l-23 -59 -3
-2015 c-2 -1466 0 -2034 9 -2083 33 -199 198 -370 398 -413 99 -21 2734 -20
2834 1 173 36 320 170 379 344 l23 66 3 1990 c2 1349 -1 2016 -8 2070 -13 102
-59 201 -128 277 -97 105 -201 154 -361 169 -157 15 -245 69 -303 186 -30 61
-32 72 -36 202 l-4 138 41 7 c24 4 54 18 73 35 l33 29 3 234 c4 253 -2 294
-45 327 -26 21 -32 21 -1087 21 -946 0 -1064 -2 -1084 -16z m1658 -299 l0
-245 -55 0 -55 0 0 245 0 245 55 0 55 0 0 -245z m360 0 l0 -245 -140 0 -140 0
0 245 0 245 140 0 140 0 0 -245z m-58 -482 c6 -172 22 -225 94 -323 l44 -60
-1015 0 c-558 0 -1015 3 -1015 6 0 3 18 26 40 51 68 78 84 134 88 316 l3 157
878 0 878 0 5 -147z m591 -525 c114 -53 211 -175 236 -296 7 -35 11 -207 10
-500 -1 -264 -5 -427 -9 -399 -32 187 -144 342 -305 421 -114 56 -261 72 -378
41 l-57 -15 -49 35 c-107 77 -277 112 -413 86 -162 -32 -328 -158 -392 -298
-1 -1 -28 5 -61 13 -33 7 -79 14 -102 14 -38 0 -47 5 -90 52 -61 65 -146 121
-231 150 -54 18 -88 23 -177 23 -121 0 -179 -14 -272 -66 -28 -16 -54 -25 -57
-20 -3 5 -41 22 -83 37 -68 25 -92 29 -188 29 -89 0 -123 -5 -178 -23 -302
-104 -456 -444 -334 -737 29 -70 99 -167 152 -210 l44 -37 -61 -56 c-100 -92
-157 -195 -178 -320 -4 -26 -8 356 -9 848 -1 780 1 904 15 955 36 140 138 246
279 291 32 10 328 12 1435 11 l1395 -2 58 -27z m-748 -733 c219 -57 369 -284
334 -505 -30 -195 -182 -347 -379 -380 -168 -28 -349 51 -441 193 -121 187
-101 416 51 568 117 118 279 164 435 124z m-1184 -45 c253 -47 418 -307 354
-555 -77 -292 -417 -433 -670 -277 -250 154 -296 494 -94 700 64 66 126 102
209 124 76 20 127 22 201 8z m-538 -35 c26 -9 47 -19 47 -21 0 -2 -16 -26 -35
-52 -19 -27 -49 -79 -66 -115 -17 -37 -37 -67 -45 -67 -21 0 -80 -57 -99 -96
l-17 -36 -61 7 c-34 4 -64 9 -66 11 -2 2 9 30 25 63 l30 60 -48 6 c-26 4 -51
4 -56 1 -5 -3 -17 -30 -26 -61 -10 -30 -21 -55 -24 -55 -4 1 -26 5 -49 9 -30
6 -43 5 -43 -3 0 -6 -3 -21 -6 -33 -6 -20 -2 -23 22 -23 60 0 74 -10 74 -47 0
-45 37 -111 72 -129 47 -24 111 -28 151 -9 33 15 74 65 90 108 9 25 31 16 35
-14 11 -87 63 -197 134 -282 48 -57 37 -66 -48 -41 -73 21 -210 22 -288 1 -57
-15 -59 -15 -95 8 -62 39 -128 112 -161 178 -127 258 12 563 291 642 66 18
193 13 262 -10z m2272 -20 c32 -9 82 -29 110 -45 61 -35 144 -120 173 -176 99
-195 52 -437 -112 -566 -77 -61 -86 -64 -158 -43 -76 22 -200 24 -285 6 -52
-11 -65 -11 -79 0 -14 12 -14 14 3 26 10 8 40 35 67 61 32 31 59 48 80 50 44
5 87 32 114 73 21 29 23 43 19 100 l-4 66 54 27 c29 14 58 26 63 26 13 0 30
-67 30 -117 l0 -41 50 21 51 21 -7 46 c-4 25 -13 61 -19 81 l-13 36 54 26 c56
28 61 35 44 68 -10 18 -12 18 -67 -9 l-56 -29 -34 38 c-50 55 -116 71 -184 45
-11 -5 -19 6 -32 46 -9 30 -32 79 -51 110 -33 55 -33 57 -12 61 50 10 146 6
201 -8z m443 -1563 l-3 -367 -28 57 c-15 31 -48 79 -72 106 l-45 50 35 58 c57
94 77 159 83 265 8 169 -41 302 -156 418 l-67 68 77 74 c91 88 144 186 162
301 9 62 11 19 14 -295 1 -202 1 -532 0 -735z m-1607 957 c4 -13 7 -48 8 -76
1 -29 3 -53 6 -53 4 0 19 7 36 16 30 15 30 15 82 -32 29 -26 62 -51 74 -57 22
-10 22 -11 5 -39 -10 -18 -23 -27 -32 -24 -8 3 -49 17 -90 32 -56 20 -96 27
-158 28 -69 1 -81 3 -75 16 4 8 8 49 9 89 l3 75 53 27 c61 32 70 32 79 -2z
m-889 -285 c54 -27 158 -53 223 -55 34 -1 46 -8 83 -49 l43 -48 -31 -48 c-93
-151 -89 -396 9 -555 l28 -46 -54 -53 c-30 -30 -61 -66 -70 -80 -15 -27 -16
-27 -117 -22 -94 4 -103 6 -130 32 l-29 29 60 61 c228 230 213 607 -34 818
-56 48 -52 52 19 16z m1273 11 c88 -19 142 -19 230 0 54 12 75 13 92 4 21 -12
20 -14 -46 -75 -38 -35 -83 -86 -101 -114 -42 -65 -80 -174 -80 -229 0 -59 -8
-48 -21 29 -13 85 -64 192 -127 267 l-52 62 17 36 c9 19 17 35 17 35 1 0 33
-7 71 -15z m-1462 -42 c123 -58 219 -172 252 -298 96 -369 -286 -685 -630
-521 -183 86 -288 282 -255 475 29 172 145 308 308 362 44 15 80 18 157 16 88
-2 108 -6 168 -34z m1078 3 c160 -34 287 -143 341 -294 29 -81 29 -215 0 -297
-115 -315 -513 -406 -748 -171 -259 259 -117 701 246 766 67 12 89 11 161 -4z
m1187 -20 c66 -24 155 -91 200 -152 55 -74 84 -153 89 -244 23 -356 -354 -595
-668 -424 -263 144 -312 502 -98 717 122 121 311 162 477 103z m-2968 -595
c24 -62 60 -120 105 -170 l34 -38 -63 -65 c-35 -36 -76 -87 -90 -114 l-25 -49
1 295 c0 201 3 278 9 243 5 -28 18 -74 29 -102z m2280 4 c21 -66 57 -131 105
-189 40 -50 44 -58 33 -77 -10 -15 -19 -19 -38 -14 -65 16 -226 17 -282 2 -32
-8 -60 -12 -62 -8 -3 4 23 37 57 72 87 91 126 173 153 324 l8 40 6 -55 c4 -30
13 -73 20 -95z m-897 -289 c103 -69 180 -91 317 -91 93 1 126 5 175 23 74 28
90 28 45 1 -19 -12 -54 -39 -77 -61 l-42 -41 -34 17 c-48 22 -124 21 -164 -4
-18 -11 -45 -42 -60 -70 -27 -49 -29 -51 -63 -45 -21 4 -44 17 -57 33 l-22 26
20 35 c11 18 18 36 15 39 -3 2 -25 8 -48 12 -32 6 -45 5 -51 -5 -5 -10 -19 -6
-58 21 -28 19 -55 34 -60 34 -19 0 -7 23 37 70 26 28 50 50 54 50 4 0 37 -20
73 -44z m1889 -113 c60 -126 60 -260 0 -386 -81 -171 -240 -264 -435 -256 -47
2 -88 7 -91 10 -4 3 1 26 9 50 9 24 19 71 22 104 l6 60 16 -44 c17 -47 14 -46
117 -25 30 6 32 4 49 -39 16 -43 18 -44 45 -34 l28 11 -18 47 -19 46 36 24
c51 33 77 88 69 142 -14 93 -68 139 -169 141 l-59 1 -24 59 c-29 72 -26 76 74
76 69 0 72 1 62 19 -16 31 -13 37 28 50 20 7 62 30 92 51 l55 38 39 -42 c21
-22 52 -69 68 -103z m-2952 80 c61 -26 74 -28 195 -28 109 1 138 4 183 22 50
20 53 20 74 3 l22 -18 -54 -27 c-30 -15 -77 -44 -105 -65 -27 -21 -66 -41 -85
-45 -56 -12 -95 -41 -121 -92 -13 -27 -24 -49 -25 -50 -2 -9 -124 22 -124 31
0 7 11 35 25 61 13 27 23 50 22 51 -1 1 -25 4 -53 8 l-52 6 -18 -61 -19 -60
-52 6 -53 6 0 -30 c0 -28 3 -30 44 -36 43 -7 44 -8 51 -53 4 -26 14 -59 23
-74 34 -59 141 -87 205 -54 l27 15 0 -67 c0 -69 20 -165 45 -214 l13 -28 -37
0 c-154 0 -322 114 -394 267 -61 131 -47 307 33 431 46 72 117 135 145 129 11
-3 49 -18 85 -34z m2025 -58 c234 -61 381 -314 320 -550 -22 -84 -60 -147
-126 -210 -265 -253 -697 -108 -760 254 -23 131 28 290 125 386 118 116 282
161 441 120z m-1250 -49 c226 -60 373 -282 335 -507 -51 -302 -372 -469 -645
-335 -273 135 -340 486 -135 709 113 123 288 175 445 133z m587 -251 c-10
-120 -6 -234 12 -293 11 -34 16 -65 12 -69 -4 -4 -50 -9 -103 -11 l-96 -5 7
29 c21 81 27 145 22 205 -6 58 -5 67 15 85 11 10 30 36 41 57 17 35 22 38 56
35 34 -3 37 -5 34 -33z m1698 -1295 c-24 -132 -111 -243 -238 -303 l-67 -32
-570 -3 -570 -3 49 31 c64 41 140 120 176 184 26 46 36 53 97 77 45 18 69 23
72 15 11 -33 97 -139 142 -175 60 -48 155 -95 219 -110 69 -16 219 -13 281 5
88 26 169 72 231 131 72 69 113 132 146 225 35 100 36 251 3 348 -62 180 -210
319 -386 365 -86 22 -218 20 -301 -6 -38 -12 -75 -26 -81 -31 -30 -24 -9 6 30
45 24 23 51 53 60 66 15 22 18 23 65 11 67 -16 186 -16 253 0 103 24 179 68
259 149 44 44 89 101 105 133 l30 58 3 -562 c1 -347 -2 -584 -8 -618z m-3329
949 c44 -53 148 -126 219 -153 25 -10 74 -24 110 -31 36 -7 55 -14 43 -14 -41
-2 -137 -43 -206 -88 -107 -71 -188 -185 -222 -314 -23 -84 -19 -231 8 -310
60 -177 204 -317 374 -364 l48 -13 -50 -1 c-161 -2 -324 106 -386 256 l-24 58
-3 555 -2 555 25 -44 c14 -24 44 -65 66 -92z m1512 -130 c37 -1 67 -3 67 -4 0
-2 -17 -29 -38 -61 -34 -50 -45 -59 -100 -79 l-62 -22 -26 34 -26 35 25 26
c13 15 32 39 42 55 12 18 23 26 34 22 10 -3 47 -6 84 -6z m259 -38 c20 -22 59
-56 88 -77 67 -48 53 -62 -32 -30 -36 14 -93 28 -126 32 -34 3 -62 10 -62 14
0 10 80 100 89 100 4 0 23 -18 43 -39z m1191 -154 c231 -109 327 -375 217
-603 -56 -116 -144 -192 -270 -234 -53 -18 -82 -21 -160 -18 -81 3 -105 8
-163 35 -373 176 -347 705 42 840 55 20 82 23 161 21 86 -3 103 -7 173 -41z
m-2368 18 c126 -33 240 -129 297 -251 43 -92 51 -219 19 -323 -86 -282 -428
-403 -682 -240 -190 121 -254 382 -147 593 29 56 112 141 173 176 101 58 226
74 340 45z m1782 -40 c-62 -62 -119 -164 -142 -251 -16 -63 -20 -187 -6 -245
8 -33 6 -38 -16 -48 -13 -6 -26 -11 -28 -11 -2 0 -2 28 2 63 10 115 -30 262
-97 357 l-20 28 32 43 c17 24 33 46 35 48 7 9 65 -55 85 -93 l20 -39 29 44
c34 52 35 56 12 82 -16 17 -16 21 -3 25 55 21 136 49 143 51 4 0 -17 -24 -46
-54z m-1101 20 c16 -25 15 -26 -42 -89 l-59 -63 -38 36 c-21 19 -36 42 -35 50
3 13 129 88 150 90 4 1 15 -10 24 -24z m445 -25 c130 -24 262 -126 318 -244
137 -288 -41 -610 -361 -650 -167 -21 -359 79 -440 230 -183 340 104 735 483
664z m-633 -180 c24 -31 32 -49 27 -64 -46 -145 -46 -280 0 -398 5 -13 -2 -21
-29 -32 -35 -15 -138 -37 -144 -32 -1 2 9 23 23 47 64 112 85 276 50 408 -15
58 -15 64 2 91 10 17 22 29 28 27 5 -2 25 -23 43 -47z m92 -579 c0 -18 84
-102 141 -140 l61 -41 -398 1 c-347 1 -393 2 -351 14 55 15 137 57 185 93 26
20 44 25 77 23 60 -3 172 17 220 39 45 21 65 24 65 11z"/>
<path d="M2622 3903 l-29 -37 -36 17 c-19 9 -54 17 -77 17 -136 0 -198 -163
-104 -271 12 -13 8 -23 -30 -72 l-44 -57 -27 31 c-14 18 -35 50 -46 72 l-21
40 -24 -29 c-48 -57 -48 -58 4 -127 l49 -64 -35 -47 -35 -47 20 -21 20 -20 42
50 42 49 37 -19 c77 -40 178 -4 217 78 24 50 16 123 -18 171 -29 40 -31 33 32
113 l20 25 25 -24 c13 -12 30 -36 36 -52 15 -35 19 -35 47 1 37 46 36 54 -7
103 l-42 47 31 37 c32 38 32 47 1 63 -15 8 -24 3 -48 -27z"/>
<path d="M1015 3860 c-17 -18 -16 -21 14 -59 19 -24 27 -42 21 -46 -19 -12
-50 -84 -50 -116 0 -51 43 -114 94 -139 49 -23 94 -21 151 8 29 15 29 14 72
-34 23 -27 43 -53 43 -57 0 -10 -100 -57 -122 -57 -31 0 -27 -16 12 -55 l40
-39 72 38 73 37 39 -46 39 -46 24 22 23 23 -42 43 c-36 37 -41 46 -30 61 48
68 58 133 29 189 -10 18 -34 45 -54 60 -30 23 -46 28 -92 27 -32 0 -70 -7 -88
-17 l-32 -17 -41 47 c-47 54 -44 62 32 91 l46 17 -34 38 c-19 20 -38 37 -42
37 -5 0 -30 -14 -57 -31 l-49 -31 -33 36 c-18 20 -35 36 -37 36 -1 0 -11 -9
-21 -20z"/>
<path d="M548 2999 l-26 -10 15 -45 c8 -25 14 -46 12 -48 -2 -1 -21 -12 -41
-25 -22 -13 -45 -39 -58 -66 -52 -108 29 -224 157 -225 l41 0 19 -62 c24 -78
18 -83 -78 -74 -38 3 -69 5 -69 4 0 -2 6 -23 14 -48 l13 -45 86 0 85 0 16 -59
c16 -56 18 -58 44 -51 15 4 28 7 29 8 1 1 -6 29 -15 61 -15 55 -15 59 2 68
122 69 134 209 23 292 -17 13 -48 21 -86 24 l-59 4 -16 56 c-8 30 -13 59 -9
65 3 5 32 7 64 5 58 -4 58 -4 52 21 -15 65 -25 76 -73 73 -25 -2 -52 -5 -62
-8 -12 -4 -20 7 -33 46 -9 27 -17 50 -18 49 -1 0 -14 -5 -29 -10z"/>
<path d="M1835 2821 c-76 -47 -102 -109 -81 -192 l13 -48 -54 -36 -54 -36 -13
33 c-8 18 -17 47 -21 65 l-6 32 -42 -26 c-23 -15 -43 -28 -45 -29 -2 -1 8 -30
21 -64 l25 -61 -39 -25 c-43 -27 -45 -31 -24 -57 13 -18 15 -18 57 7 43 25 44
25 56 6 17 -27 85 -60 124 -60 41 0 104 35 132 73 22 30 28 95 13 153 -8 31
-6 33 50 68 l58 37 14 -33 c8 -18 16 -54 19 -80 2 -27 7 -48 9 -48 11 0 93 53
93 59 0 5 -9 34 -21 67 -11 32 -22 66 -25 74 -3 10 11 25 45 45 28 17 51 33
51 36 0 4 -8 16 -17 28 l-18 21 -51 -34 -52 -35 -23 26 c-52 55 -136 70 -194
34z"/>
<path d="M2695 2886 c-19 -14 -19 -15 12 -54 l32 -39 -25 -35 c-96 -134 46
-298 198 -230 l46 20 46 -54 46 -53 -32 -17 c-17 -9 -54 -24 -80 -33 l-49 -16
40 -39 40 -39 42 17 c24 10 56 26 71 37 l28 21 44 -49 45 -48 21 21 21 20 -41
46 -40 47 24 35 c37 55 42 107 16 162 -42 87 -131 118 -227 79 l-42 -17 -38
42 c-21 24 -39 46 -41 50 -3 7 65 44 102 55 17 5 15 10 -19 45 l-38 39 -36
-19 c-20 -10 -45 -25 -55 -33 -17 -13 -22 -11 -49 19 -33 38 -36 39 -62 20z"/>
<path d="M2603 1850 l-43 -40 -37 24 c-53 34 -101 41 -149 21 -52 -22 -73 -42
-96 -94 -22 -47 -19 -91 9 -144 14 -28 14 -30 -19 -64 -60 -62 -65 -62 -96 7
l-28 60 -37 -38 -36 -37 30 -54 31 -53 -36 -37 c-36 -37 -36 -38 -17 -55 22
-20 42 -13 75 23 l18 20 37 -24 c52 -35 93 -41 146 -20 89 34 123 117 87 212
l-20 53 51 45 c60 51 63 50 99 -47 11 -32 24 -58 27 -58 4 0 23 16 41 36 l35
35 -38 72 -37 72 45 40 c44 38 45 41 30 63 -9 12 -19 22 -23 22 -4 0 -26 -18
-49 -40z"/>
<path d="M1269 1874 c-17 -32 -28 -42 -39 -37 -30 13 -101 15 -131 3 -39 -16
-76 -62 -89 -108 -13 -51 3 -104 46 -152 l36 -39 -35 -62 -35 -62 -51 51 c-28
28 -51 56 -51 62 0 23 -17 7 -38 -35 -21 -44 -21 -47 -5 -68 9 -13 36 -38 59
-57 l42 -34 -26 -50 c-15 -28 -28 -54 -30 -57 -3 -6 49 -32 53 -27 1 2 15 26
30 55 26 46 31 50 53 42 36 -14 100 -11 132 6 16 8 42 32 57 52 24 31 28 46
28 98 0 53 -4 67 -30 99 -16 21 -34 44 -39 51 -6 8 1 30 22 66 l30 53 48 -47
c26 -26 48 -46 49 -45 4 5 45 87 45 91 0 1 -22 20 -50 41 l-50 38 20 38 c25
50 25 54 -4 68 -22 10 -26 7 -47 -34z"/>
<path d="M3137 965 c-16 -25 -32 -47 -36 -49 -4 -3 -27 2 -51 10 -64 22 -113
11 -161 -37 -69 -69 -72 -149 -9 -229 l28 -36 -38 -52 -37 -53 -37 41 c-20 22
-36 45 -36 50 0 20 -16 8 -43 -32 l-29 -41 47 -47 47 -48 -28 -41 c-26 -40
-26 -42 -8 -56 27 -21 31 -19 60 24 26 39 26 39 59 25 83 -34 162 -5 203 76
29 57 24 105 -19 167 l-31 44 36 55 c35 53 37 54 58 39 12 -8 36 -37 54 -65
l31 -49 33 45 c36 51 39 43 -42 129 l-38 41 35 51 34 51 -24 16 c-13 9 -26 16
-27 16 -2 0 -16 -20 -31 -45z"/>
<path d="M695 876 c-36 -16 -83 -68 -90 -99 -3 -12 -6 -44 -7 -71 l-3 -48 -54
-20 c-64 -24 -71 -19 -71 59 l0 53 -47 -19 c-52 -21 -54 -25 -39 -107 l7 -42
-45 -17 c-25 -10 -46 -19 -46 -21 0 -2 5 -14 11 -28 11 -24 12 -24 51 -10 54
19 52 19 79 -20 32 -47 68 -66 126 -66 93 0 145 54 153 158 l5 64 62 23 c73
28 73 28 73 -76 l0 -69 48 19 47 19 0 53 c0 30 -3 68 -7 84 -7 30 -5 31 50 50
47 16 56 24 54 40 -6 35 -19 38 -75 17 l-55 -21 -22 32 c-12 18 -34 41 -48 51
-32 25 -116 31 -157 12z"/>
<path d="M1571 899 l-24 -20 31 -32 c18 -18 32 -36 32 -40 0 -3 -11 -23 -25
-43 -55 -81 -13 -200 82 -233 37 -13 46 -13 104 7 l64 21 42 -47 c23 -26 42
-51 43 -55 0 -11 -101 -57 -127 -57 -32 0 -29 -10 16 -54 l39 -38 72 38 73 38
40 -47 40 -48 24 22 23 23 -42 43 c-40 40 -42 45 -29 66 32 50 41 74 41 110 0
123 -120 199 -235 148 l-47 -21 -39 43 c-21 23 -38 47 -39 53 0 6 26 22 57 36
l57 24 -36 39 -35 39 -58 -33 -58 -33 -31 36 -31 36 -24 -21z"/>
</g>
</svg>
